HIERARCHY
ROOT Hips
{
	OFFSET 0.00000 0.00000 0.00000
	CHANNELS 6 Xposition Yposition Zposition Zrotation Yrotation Xrotation 
	JOINT LHipJoint
	{
		OFFSET 0 0 0
		CHANNELS 3 Zrotation Yrotation Xrotation
		JOINT LeftUpLeg
		{
			OFFSET 1.53139 -1.83434 0.76626
			CHANNELS 3 Zrotation Yrotation Xrotation
			JOINT LeftLeg
			{
				OFFSET 2.56112 -7.03663 0.00000
				CHANNELS 3 Zrotation Yrotation Xrotation
				JOINT LeftFoot
				{
					OFFSET 2.59983 -7.14299 0.00000
					CHANNELS 3 Zrotation Yrotation Xrotation
					JOINT LeftToeBase
					{
						OFFSET 0.13742 -0.37757 2.00054
						CHANNELS 3 Zrotation Yrotation Xrotation
						End Site
						{
							OFFSET 0.00000 -0.00000 1.02897
						}
					}
				}
			}
		}
	}
	JOINT RHipJoint
	{
		OFFSET 0 0 0
		CHANNELS 3 Zrotation Yrotation Xrotation
		JOINT RightUpLeg
		{
			OFFSET -1.40122 -1.83435 0.76627
			CHANNELS 3 Zrotation Yrotation Xrotation
			JOINT RightLeg
			{
				OFFSET -2.54052 -6.98003 0.00000
				CHANNELS 3 Zrotation Yrotation Xrotation
				JOINT RightFoot
				{
					OFFSET -2.63179 -7.23079 0.00000
					CHANNELS 3 Zrotation Yrotation Xrotation
					JOINT RightToeBase
					{
						OFFSET -0.24131 -0.66299 2.03908
						CHANNELS 3 Zrotation Yrotation Xrotation
						End Site
						{
							OFFSET -0.00000 -0.00000 1.07391
						}
					}
				}
			}
		}
	}
	JOINT LowerBack
	{
		OFFSET 0 0 0
		CHANNELS 3 Zrotation Yrotation Xrotation
		JOINT Spine
		{
			OFFSET 0.01174 2.10302 -0.29778
			CHANNELS 3 Zrotation Yrotation Xrotation
			JOINT Spine1
			{
				OFFSET 0.00772 2.13227 -0.01247
				CHANNELS 3 Zrotation Yrotation Xrotation
				JOINT Neck
				{
					OFFSET 0 0 0
					CHANNELS 3 Zrotation Yrotation Xrotation
					JOINT Neck1
					{
						OFFSET -0.09219 1.60848 0.31481
						CHANNELS 3 Zrotation Yrotation Xrotation
						JOINT Head
						{
							OFFSET 0.13974 1.65456 -0.31134
							CHANNELS 3 Zrotation Yrotation Xrotation
							End Site
							{
								OFFSET 0.04742 1.69515 -0.14578
							}
						}
					}
				}
				JOINT LeftShoulder
				{
					OFFSET 0 0 0
					CHANNELS 3 Zrotation Yrotation Xrotation
					JOINT LeftArm
					{
						OFFSET 3.24909 1.02882 -0.23993
						CHANNELS 3 Zrotation Yrotation Xrotation
						JOINT LeftForeArm
						{
							OFFSET 5.32955 -0.00000 -0.00000
							CHANNELS 3 Zrotation Yrotation Xrotation
							JOINT LeftHand
							{
								OFFSET 3.69232 -0.00000 -0.00000
								CHANNELS 3 Zrotation Yrotation Xrotation
								JOINT LeftFingerBase
								{
									OFFSET 0 0 0
									CHANNELS 3 Zrotation Yrotation Xrotation
									JOINT LeftHandIndex1
									{
										OFFSET 0.53660 -0.00000 -0.00000
										CHANNELS 3 Zrotation Yrotation Xrotation
										End Site
										{
											OFFSET 0.43262 -0.00000 -0.00000
										}
									}
								}
								JOINT LThumb
								{
									OFFSET 0 0 0
									CHANNELS 3 Zrotation Yrotation Xrotation
									End Site
									{
										OFFSET 0.43922 -0.00000 0.43922
									}
								}
							}
						}
					}
				}
				JOINT RightShoulder
				{
					OFFSET 0 0 0
					CHANNELS 3 Zrotation Yrotation Xrotation
					JOINT RightArm
					{
						OFFSET -3.21387 0.93002 -0.34594
						CHANNELS 3 Zrotation Yrotation Xrotation
						JOINT RightForeArm
						{
							OFFSET -5.23431 -0.00000 0.00000
							CHANNELS 3 Zrotation Yrotation Xrotation
							JOINT RightHand
							{
								OFFSET -3.55301 -0.00000 -0.00000
								CHANNELS 3 Zrotation Yrotation Xrotation
								JOINT RightFingerBase
								{
									OFFSET 0 0 0
									CHANNELS 3 Zrotation Yrotation Xrotation
									JOINT RightHandIndex1
									{
										OFFSET -0.77252 -0.00000 -0.00000
										CHANNELS 3 Zrotation Yrotation Xrotation
										End Site
										{
											OFFSET -0.62283 -0.00000 -0.00000
										}
									}
								}
								JOINT RThumb
								{
									OFFSET 0 0 0
									CHANNELS 3 Zrotation Yrotation Xrotation
									End Site
									{
										OFFSET -0.63234 -0.00000 0.63234
									}
								}
							}
						}
					}
				}
			}
		}
	}
}
MOTION
Frames: 5
Frame Time: .0083333
-11.0657 18.0373 -0.1547 -1078.7400 -22.0373 1076.7300 0.0000 0.0000 0.0000 -25.2941 -1.5264 8.1751 2.9756 10.6555 31.1266 -0.1448 -9.2655 10.1692 0.5955 -4.9403 -13.7382 0.0000 0.0000 0.0000 18.4168 5.3518 -13.5054 -1.6187 -8.0221 22.7813 -0.0316 3.2375 -3.6341 -0.0020 -0.2877 0.7906 -3.6166 0.9077 10.4185 0.4844 0.7968 0.2520 2.4263 0.4935 -5.6445 -11.0614 -4.1298 -23.0021 6.5182 -4.1870 33.7121 3.8992 -2.2917 16.3732 0.0000 -0.0000 0.0000 -87.8855 4.7539 20.1778 17.4223 -27.4111 -4.2799 -0.0000 -0.0000 6.4294 19.1683 24.6053 8.2355 -7.1250 0.0000 -0.0000 -11.1097 55.4997 -2.8890 0.0000 -0.0000 0.0000 88.8591 -5.3802 15.7164 -15.4940 24.8298 -3.4307 0.0000 0.0000 5.9512 -16.3784 7.7358 -2.2655 7.1250 -0.0000 -0.0000 7.5942 -21.9459 4.2422
-11.1433 18.0630 -0.0543 -1078.8700 -21.6271 1076.7800 0.0000 0.0000 0.0000 -24.8940 -1.8125 7.0405 3.3425 11.2298 33.0590 0.0023 -9.1272 13.0470 0.5803 -4.8780 -13.5608 0.0000 0.0000 0.0000 18.7057 5.0648 -12.8739 -1.5826 -7.9363 22.5208 -0.0464 2.9842 -4.0745 -0.0019 -0.2801 0.7697 -3.4337 0.8642 10.3902 0.4721 0.7616 0.2813 2.3158 0.4699 -5.5924 -10.9374 -4.1659 -23.2933 6.5339 -4.2607 33.7212 3.8703 -2.2982 16.4521 0.0000 -0.0000 0.0000 -87.8950 4.7679 19.6898 17.0711 -26.9514 -4.1195 -0.0000 -0.0000 6.7770 19.2359 24.4650 8.2229 -7.1250 0.0000 -0.0000 -10.9755 55.3720 -2.8192 0.0000 -0.0000 0.0000 88.9035 -5.3801 15.9252 -15.5618 24.9230 -3.4593 0.0000 0.0000 5.8660 -16.4237 7.7842 -2.2863 7.1250 -0.0000 -0.0000 7.5601 -21.8940 4.2318
-11.2217 18.0797 0.0450 -1079.1100 -21.2511 1076.8600 0.0000 0.0000 0.0000 -24.3295 -1.9317 5.8614 3.7325 11.7957 35.0131 0.1818 -8.9524 15.6451 0.5297 -4.6636 -12.9517 0.0000 0.0000 0.0000 19.1099 4.7507 -12.1916 -1.5315 -7.8132 22.1481 -0.0515 2.8966 -4.2244 -0.0085 -0.5960 1.6379 -3.1935 0.8297 10.3991 0.5044 0.7463 0.2978 2.2165 0.4559 -5.5758 -10.8932 -4.1891 -23.4727 6.5922 -4.3072 33.6424 3.8764 -2.2970 16.4608 -0.0000 0.0000 0.0000 -87.8723 4.8090 19.4603 16.7294 -26.4997 -3.9658 -0.0000 -0.0000 6.9853 19.2355 24.5720 8.2559 -7.1250 0.0000 -0.0000 -11.0249 55.4797 -2.8611 -0.0000 0.0000 0.0000 88.8885 -5.4493 16.2860 -15.6996 25.1116 -3.5175 0.0000 0.0000 5.6678 -16.3818 7.7646 -2.2744 7.1250 -0.0000 -0.0000 7.5910 -21.9161 4.2456
-11.2959 18.0901 0.1485 -1079.3600 -20.9139 1076.9800 0.0000 0.0000 0.0000 -23.7907 -2.1394 4.6806 4.1397 12.3440 36.9601 0.4075 -8.3928 17.9235 0.3384 -3.7385 -10.3422 0.0000 0.0000 0.0000 19.4933 4.3383 -11.5998 -1.4767 -7.6783 21.7412 -0.0549 2.9445 -4.3499 -0.0202 -0.9173 2.5214 -2.8612 0.8085 10.2563 0.4901 0.7618 0.3305 2.0127 0.4526 -5.4572 -10.7566 -4.2121 -23.5693 6.5531 -4.3641 33.5197 3.8182 -2.3020 16.4230 0.0000 -0.0000 0.0000 -87.7080 4.9123 19.5279 16.4918 -26.1830 -3.8604 -0.0000 -0.0000 7.0911 19.0571 25.1092 8.3394 -7.1250 0.0000 -0.0000 -11.4621 55.9838 -3.1177 0.0000 -0.0000 0.0000 88.9646 -5.4177 16.4516 -15.7748 25.2143 -3.5495 0.0000 0.0000 5.6719 -16.3122 7.6539 -2.2321 7.1250 -0.0000 -0.0000 7.6445 -22.0334 4.2554
-11.3667 18.1004 0.2507 -1079.7600 -20.5184 1077.0900 0.0000 0.0000 0.0000 -23.1167 -2.4369 3.5800 4.5673 12.8793 38.9182 0.6533 -7.8378 20.0793 0.1378 -2.3923 -6.5912 0.0000 0.0000 0.0000 20.0180 3.6828 -11.0282 -1.4180 -7.5309 21.2981 -0.0624 2.9978 -4.6037 -0.0189 -0.8870 2.4381 -2.4275 0.7994 10.2177 0.5524 0.8055 0.3814 1.8273 0.4623 -5.3788 -10.6889 -4.2815 -23.6619 6.5777 -4.4903 33.4548 3.7885 -2.3372 16.4265 0.0000 0.0000 0.0000 -87.5832 5.0457 19.7251 16.3220 -25.9553 -3.7858 -0.0000 -0.0000 7.1797 18.6965 25.0704 8.1604 -7.1250 0.0000 -0.0000 -11.8177 55.8712 -3.1838 0.0000 0.0000 0.0000 89.0041 -5.3244 16.4477 -15.7702 25.2081 -3.5475 0.0000 0.0000 5.7733 -16.3780 7.7861 -2.2801 7.1250 -0.0000 -0.0000 7.5932 -21.8941 4.2507
